# xmcd CD database file
#
# Track frame offsets:
#	150
#	11807
#	26479
#
# Disc length: 610 seconds
#
# Revision: 0
# Processed by: cddbd v1.5.1PL0 Copyright (c) Steve Scherf et al.
# Submitted via: CDex 1.51
#
DISCID=1a026003
DTITLE=ニュー - おかしやさん
DYEAR=2004
DGENRE=ポップ (一般)
TTITLE0=遠くはなれたとこにいるあなたへ
TTITLE1=殻
TTITLE2=ラブ　トゥー　エブリバディ
EXTD=YEAR: 2004
EXTT0=
EXTT1=
EXTT2=
PLAYORDER=
